<?xml version="1.0" encoding="utf-8"?>
<!-- Generator: Adobe Illustrator 22.1.0, SVG Export Plug-In . SVG Version: 6.00 Build 0)  -->
<svg version="1.1" id="Layer_1" xmlns="http://www.w3.org/2000/svg" xmlns:xlink="http://www.w3.org/1999/xlink" x="0px" y="0px"
	 viewBox="0 0 512 512" style="enable-background:new 0 0 512 512;" xml:space="preserve">
<g>
	<title>amazon-aws</title>
	<g>
		<path d="M157.8,264.4c0,5.6,0.7,10,1.7,13.3c1.2,3.3,2.7,6.9,4.8,10.8c0.8,1.3,1.1,2.4,1.1,3.4c0,1.5-1,3-2.9,4.5l-9.4,6.2
			c-1.2,0.9-2.5,1.3-3.9,1.4c-1.5,0-3-0.7-4.5-2.1c-2.1-2.1-3.8-4.5-5.4-7c-1.7-2.9-3.2-5.8-4.6-8.8c-11.7,13.8-26.4,20.7-44,20.7
			c-12.6,0-22.6-3.6-30-10.8c-7.3-7.3-11.1-16.8-11.1-28.8c0-12.7,4.5-23.1,13.6-30.8s21.2-11.6,36.7-11.6c5,0,10.3,0.4,15.8,1.2
			c5.6,0.7,11.3,2,17.2,3.3v-10.9c0-11.3-2.3-19.3-7-23.9c-4.8-4.6-12.8-6.9-24.4-6.9c-5.2,0-10.6,0.6-16.2,1.9
			c-5.5,1.4-10.9,3-16.1,5.1c-1.8,0.8-3.5,1.4-5.3,2c-0.7,0.2-1.5,0.4-2.3,0.4c-2.1,0-3.1-1.5-3.1-4.7v-7.3c0-2.3,0.3-4.2,1-5.2
			c1.1-1.4,2.6-2.5,4.2-3.1c5.3-2.7,11.5-5,18.8-6.7c7.7-2,15.5-2.9,23.4-2.9c17.9,0,30.8,4,39.3,12.2c8.2,8.1,12.4,20.3,12.4,36.8
			v48.5L157.8,264.4z M97.1,287.2c4.9,0,10-0.9,15.4-2.7c5.4-1.8,10.2-5,14.2-9.5c2.4-2.9,4.2-6,5.1-9.6s1.5-8,1.5-13V246
			c-4.5-1.1-9.1-2-13.8-2.6c-4.6-0.6-9.3-0.9-14.1-0.9c-10,0-17.4,2-22.3,6c-5,4-7.3,9.7-7.3,17.2c0,7,1.8,12.2,5.5,15.8
			C84.9,285.3,90.2,287.2,97.1,287.2L97.1,287.2z M217.3,303.4c-2.7,0-4.5-0.4-5.7-1.5c-1.2-0.9-2.3-3-3.1-5.8l-35.2-115.7
			c-0.7-2-1.2-4-1.3-6c0-2.4,1.2-3.7,3.5-3.7h14.7c2.9,0,4.8,0.4,5.8,1.5c1.3,0.9,2.1,3,3,5.9l25.2,99.1l23.4-99.1
			c0.7-3,1.6-5,2.8-5.9c1.8-1.1,3.9-1.6,6-1.5h11.9c2.9,0,4.8,0.4,6,1.5c1.2,0.9,2.3,3,2.9,5.9l23.7,100.3l25.9-100.3c1-3,2-5,3-5.9
			c1.8-1.1,3.8-1.6,5.9-1.5h13.9c2.4,0,3.7,1.2,3.7,3.7c0,0.7-0.1,1.5-0.3,2.4c-0.2,1.3-0.6,2.5-1,3.7l-36.1,115.6
			c-0.9,3-1.9,5-3.1,5.9c-1.7,1.1-3.7,1.6-5.6,1.5H294c-2.9,0-4.8-0.4-6-1.5c-1.2-1-2.2-3-2.8-6L262,199.5l-23.1,96.4
			c-0.7,3-1.6,5-2.9,6c-1.2,1-3.3,1.5-6,1.5L217.3,303.4z M409.5,307.4c-7.8,0-15.5-1-23-2.7c-7.5-1.8-13.3-3.7-17.2-6
			c-2.4-1.3-4-2.8-4.6-4.2c-0.6-1.3-1-2.7-1-4.2v-7.6c0-3.1,1.3-4.7,3.4-4.7c0.9,0,1.8,0.1,2.7,0.4c0.9,0.4,2.3,1,3.7,1.5
			c5.1,2.3,10.6,4,16.5,5.2c6,1.3,11.8,1.8,17.8,1.8c9.4,0,16.8-1.7,21.8-5c5-3,8-8.4,7.8-14.2c0.1-3.9-1.4-7.6-4-10.5
			c-2.7-2.8-7.8-5.3-15.2-7.8l-21.7-6.7c-10.9-3.4-19-8.5-23.9-15.2c-4.8-6.2-7.5-13.8-7.5-21.8c0-6.3,1.4-11.8,4.1-16.6
			c2.7-4.8,6.3-8.9,10.8-12.2c4.5-3.4,9.6-6,15.5-7.8c6-1.8,12.3-2.6,18.9-2.6c3.3,0,6.7,0.1,10,0.6c3.4,0.4,6.6,1,9.7,1.7
			c2.9,0.7,5.8,1.5,8.5,2.3c2.7,0.9,4.8,1.8,6.3,2.7c1.8,0.9,3.3,2.2,4.5,3.7c1,1.5,1.5,3.2,1.4,5v7c0,3.1-1.3,4.8-3.4,4.8
			c-2.1-0.2-4-0.8-5.7-1.8c-9-4-18.8-6-28.7-5.9c-8.6,0-15.3,1.3-19.9,4.2c-4.7,2.9-7,7.2-7,13.3c0,4.2,1.5,7.8,4.5,10.6
			s8.6,5.7,16.5,8.3l21.2,6.7c10.8,3.4,18.6,8.3,23.2,14.4c4.6,6.1,6.9,13.1,6.9,21c0,6.4-1.4,12.2-3.9,17.4
			c-2.7,5-6.3,9.5-10.9,13.2c-4.7,3.7-10.2,6.4-16.6,8.4C424.3,306.3,417.3,307.4,409.5,307.4L409.5,307.4z M437.8,380.1
			c-49.3,36.4-120.8,55.7-182.3,55.7c-86.2,0-163.9-31.9-222.6-84.9c-4.6-4.2-0.4-9.9,5.1-6.5c63.4,36.8,141.7,59.1,222.6,59.1
			c54.6,0,114.6-11.4,169.9-34.7C438.9,364.9,445.9,374.1,437.8,380.1L437.8,380.1z M458.4,356.8c-6.3-8.1-41.7-3.9-57.6-1.9
			c-4.8,0.6-5.6-3.7-1.2-6.8c28.1-19.7,74.3-14.1,79.8-7.5c5.3,6.8-1.5,53-27.8,75.1c-4,3.4-8,1.7-6.2-2.9
			C451.3,398.1,464.7,364.8,458.4,356.8L458.4,356.8z"/>
	</g>
</g>
</svg>
