<?xml version="1.0" encoding="UTF-8"?>
<!DOCTYPE svg PUBLIC "-//W3C//DTD SVG 1.1//EN" "http://www.w3.org/Graphics/SVG/1.1/DTD/svg11.dtd">
<svg xmlns="http://www.w3.org/2000/svg" version="1.1" width="512px" height="512px" style="shape-rendering:geometricPrecision; text-rendering:geometricPrecision; image-rendering:optimizeQuality; fill-rule:evenodd; clip-rule:evenodd" xmlns:xlink="http://www.w3.org/1999/xlink">
<g><path style="opacity:0.971" fill="#000000" d="M 83.5,-0.5 C 167.833,-0.5 252.167,-0.5 336.5,-0.5C 340.104,2.60153 343.604,5.93487 347,9.5C 378.707,45.5384 410.041,81.8717 441,118.5C 441.667,244.5 441.667,370.5 441,496.5C 438.71,503.617 434.21,508.617 427.5,511.5C 312.833,511.5 198.167,511.5 83.5,511.5C 76.7903,508.617 72.2903,503.617 70,496.5C 69.3333,335.833 69.3333,175.167 70,14.5C 72.2903,7.38267 76.7903,2.38267 83.5,-0.5 Z M 90.5,20.5 C 167.5,20.5 244.5,20.5 321.5,20.5C 321.667,43.1691 321.5,65.8358 321,88.5C 289.19,67.5613 255.024,62.7279 218.5,74C 196.116,81.5545 177.782,94.7212 163.5,113.5C 173.58,131.995 183.913,150.329 194.5,168.5C 195.167,169.833 195.833,169.833 196.5,168.5C 210.683,135.478 235.85,120.811 272,124.5C 288.851,124.748 305.684,125.415 322.5,126.5C 324.024,128.858 326.024,130.691 328.5,132C 359.165,132.5 389.832,132.667 420.5,132.5C 420.5,201.5 420.5,270.5 420.5,339.5C 310.5,339.5 200.5,339.5 90.5,339.5C 90.5,233.167 90.5,126.833 90.5,20.5 Z M 149.5,365.5 C 157.507,365.334 165.507,365.5 173.5,366C 178.329,366.541 182.996,367.707 187.5,369.5C 187.833,370.167 188.167,370.833 188.5,371.5C 186.966,377.65 185.132,383.65 183,389.5C 166.547,382.905 151.047,384.572 136.5,394.5C 125.262,408.149 122.428,423.482 128,440.5C 134.947,455.148 146.614,462.148 163,461.5C 170.016,461.423 176.85,460.59 183.5,459C 184.884,464.795 186.217,470.629 187.5,476.5C 186.619,477.971 185.286,478.804 183.5,479C 160.382,485.697 138.716,482.697 118.5,470C 102.773,454.819 96.6064,436.319 100,414.5C 105.759,387.241 122.259,370.907 149.5,365.5 Z M 218.5,366.5 C 230.171,366.333 241.838,366.5 253.5,367C 281.237,370.714 291.07,385.881 283,412.5C 278.573,418.765 273.073,423.765 266.5,427.5C 272.977,431.146 277.477,436.479 280,443.5C 283.198,455.594 286.698,467.594 290.5,479.5C 282.187,480.665 273.853,480.832 265.5,480C 261.412,467.149 257.245,454.315 253,441.5C 251.457,439.622 249.624,438.122 247.5,437C 241.912,435.711 236.245,435.211 230.5,435.5C 230.5,450.5 230.5,465.5 230.5,480.5C 222.167,480.5 213.833,480.5 205.5,480.5C 205.5,443.167 205.5,405.833 205.5,368.5C 210.01,368.116 214.343,367.449 218.5,366.5 Z M 301.5,366.5 C 310.857,366.168 320.19,366.502 329.5,367.5C 335.577,380.653 341.91,393.653 348.5,406.5C 354.477,393.607 360.477,380.607 366.5,367.5C 375.833,366.167 385.167,366.167 394.5,367.5C 383.897,385.709 373.564,404.042 363.5,422.5C 374.262,441.772 385.262,460.939 396.5,480C 386.816,480.832 377.149,480.665 367.5,479.5C 360.922,466.01 354.089,452.677 347,439.5C 340.576,452.683 334.41,466.016 328.5,479.5C 319.167,480.833 309.833,480.833 300.5,479.5C 311.3,460.732 321.967,441.898 332.5,423C 321.768,404.369 311.435,385.536 301.5,366.5 Z"/></g>
<g><path style="opacity:0.97" fill="#000000" d="M 152.5,129.5 C 153.496,129.414 154.329,129.748 155,130.5C 171.747,160.33 188.747,189.996 206,219.5C 223.082,240.538 245.249,249.038 272.5,245C 261.959,263.249 251.293,281.416 240.5,299.5C 201.074,294.355 171.574,274.355 152,239.5C 133.955,202.726 134.122,166.059 152.5,129.5 Z"/></g>
<g><path style="opacity:0.972" fill="#000000" d="M 351.5,139.5 C 355.911,139.021 360.078,139.688 364,141.5C 381.329,192.681 370.496,236.848 331.5,274C 310.694,291.572 286.694,300.405 259.5,300.5C 273.908,273.346 289.074,246.679 305,220.5C 320.678,192.501 318.511,166.001 298.5,141C 316.338,140.832 334.005,140.332 351.5,139.5 Z"/></g>
<g><path style="opacity:0.974" fill="#000000" d="M 250.5,140.5 C 280.308,140.707 296.641,155.54 299.5,185C 297.106,211.894 282.44,226.727 255.5,229.5C 232.706,227.54 218.206,215.54 212,193.5C 209.708,164.65 222.542,146.984 250.5,140.5 Z"/></g>
<g><path style="opacity:0.948" fill="#000000" d="M 231.5,384.5 C 237.176,384.334 242.843,384.501 248.5,385C 257.171,386.506 261.837,391.672 262.5,400.5C 261.641,409.195 256.975,414.695 248.5,417C 242.509,417.499 236.509,417.666 230.5,417.5C 230.19,406.419 230.523,395.419 231.5,384.5 Z"/></g>
</svg>
