<?xml version="1.0" standalone="no"?>
<!DOCTYPE svg PUBLIC "-//W3C//DTD SVG 20010904//EN"
 "http://www.w3.org/TR/2001/REC-SVG-20010904/DTD/svg10.dtd">
<svg version="1.0" xmlns="http://www.w3.org/2000/svg"
 width="1280.000000pt" height="1280.000000pt" viewBox="0 0 1280.000000 1280.000000"
 preserveAspectRatio="xMidYMid meet">

<g transform="translate(0.000000,1280.000000) scale(0.100000,-0.100000)"
fill="#000000" stroke="none">
<path d="M1 9833 c1 -2913 1 -2965 19 -2833 50 374 162 691 355 1006 186 304
464 590 765 786 119 78 314 179 440 228 47 18 88 36 92 39 4 4 -4 41 -17 84
-55 173 -76 309 -82 527 -4 162 -2 229 11 319 103 699 556 1271 1212 1531 90
36 306 94 419 112 131 21 466 15 605 -10 283 -52 549 -160 758 -310 41 -29 78
-52 82 -50 4 2 31 35 60 73 208 277 500 560 783 758 572 401 1185 615 1889
658 773 48 1581 -179 2238 -629 252 -172 589 -484 774 -717 578 -727 854
-1621 785 -2540 -9 -126 -29 -298 -45 -381 -5 -30 -4 -32 53 -54 210 -85 420
-203 601 -339 558 -422 910 -1043 986 -1742 12 -106 14 349 15 3164 l1 3287
-6400 0 -6400 0 1 -2967z"/>
<path d="M3220 11258 c-784 -135 -1342 -847 -1279 -1633 11 -131 38 -279 67
-365 l19 -54 74 -18 c66 -16 707 -167 1139 -268 192 -45 504 -118 638 -150 51
-12 95 -20 98 -17 6 6 28 113 118 572 41 209 118 601 171 870 53 270 109 553
125 630 22 108 26 143 17 151 -30 29 -160 110 -242 149 -282 138 -633 187
-945 133z"/>
<path d="M1730 8686 c-295 -120 -509 -265 -735 -498 -178 -182 -287 -337 -402
-573 -71 -145 -141 -349 -172 -500 -35 -172 -44 -285 -38 -494 5 -206 22 -324
72 -508 169 -627 626 -1152 1228 -1409 l79 -34 27 22 c29 25 349 314 861 778
179 162 392 356 475 430 82 74 294 266 470 425 496 450 835 757 878 795 l40
36 -248 534 c-137 294 -250 537 -251 539 -2 2 -126 32 -276 67 -150 35 -320
75 -378 88 -621 147 -1487 346 -1504 346 -11 -1 -68 -20 -126 -44z"/>
<path d="M10734 7836 c-165 -144 -731 -640 -1259 -1101 -528 -461 -1026 -897
-1107 -968 -82 -71 -148 -133 -148 -139 0 -13 543 -1056 563 -1080 8 -11 97
-36 252 -72 333 -77 1159 -269 1340 -312 83 -19 242 -57 355 -83 l205 -48 70
24 c102 36 316 143 420 211 458 298 799 771 929 1291 43 169 57 272 63 456 11
353 -57 683 -206 990 -228 473 -609 843 -1082 1050 l-96 43 -299 -262z"/>
<path d="M1 3253 l-1 -3253 6400 0 6400 0 -1 2968 c-1 2560 -3 2951 -15 2847
-84 -737 -478 -1396 -1094 -1827 -109 -77 -306 -184 -437 -239 -97 -42 -122
-56 -118 -68 22 -55 77 -299 90 -396 108 -825 -322 -1622 -1070 -1985 -272
-131 -528 -190 -835 -190 -389 0 -747 109 -1069 324 -104 70 -115 75 -126 59
-7 -10 -45 -58 -84 -108 -640 -803 -1545 -1285 -2565 -1365 -816 -64 -1669
173 -2336 650 -191 137 -297 227 -475 405 -359 359 -622 757 -804 1219 -185
467 -262 912 -248 1431 6 197 31 470 52 559 5 18 -3 24 -57 44 -101 38 -315
145 -413 207 -335 210 -642 522 -835 847 -187 314 -300 647 -344 1013 -12 93
-14 -384 -15 -3142z"/>
</g>
</svg>
