<?xml version="1.0" encoding="UTF-8"?>
<!DOCTYPE svg PUBLIC "-//W3C//DTD SVG 1.1//EN" "http://www.w3.org/Graphics/SVG/1.1/DTD/svg11.dtd">
<svg xmlns="http://www.w3.org/2000/svg" version="1.1" width="1024px" height="952px" style="shape-rendering:geometricPrecision; text-rendering:geometricPrecision; image-rendering:optimizeQuality; fill-rule:evenodd; clip-rule:evenodd" xmlns:xlink="http://www.w3.org/1999/xlink">
<g><path style="opacity:0.995" fill="#111111" d="M 314.5,-0.5 C 524.833,-0.5 735.167,-0.5 945.5,-0.5C 961.085,5.25716 970.919,16.2572 975,32.5C 976.113,68.8251 976.613,105.158 976.5,141.5C 904.5,141.5 832.5,141.5 760.5,141.5C 681.167,141.5 601.833,141.5 522.5,141.5C 442.833,141.5 363.167,141.5 283.5,141.5C 283.392,105.492 283.892,69.4918 285,33.5C 288.673,16.6703 298.506,5.33694 314.5,-0.5 Z"/></g>
<g><path style="opacity:0.996" fill="#151515" d="M 283.5,141.5 C 363.167,141.5 442.833,141.5 522.5,141.5C 522.895,166.974 522.895,192.308 522.5,217.5C 510.262,212.392 497.595,211.225 484.5,214C 502.383,216.722 514.383,226.555 520.5,243.5C 520.892,245.179 521.392,246.846 522,248.5C 522.176,262.741 522.676,276.908 523.5,291C 523.095,366.664 522.429,442.498 521.5,518.5C 522.057,567.217 522.724,616.05 523.5,665C 522.634,677.384 521.8,689.551 521,701.5C 516.358,722.143 503.524,733.643 482.5,736C 393.793,736.831 305.126,736.664 216.5,735.5C 209.037,736.136 201.704,736.802 194.5,737.5C 141.166,737.667 87.8323,737.5 34.5,737C 17.9999,732.33 6.33325,722.164 -0.5,706.5C -0.5,551.833 -0.5,397.167 -0.5,242.5C 6.08439,226.757 17.7511,216.924 34.5,213C 117.499,212.5 200.499,212.333 283.5,212.5C 283.5,188.833 283.5,165.167 283.5,141.5 Z"/></g>
<g><path style="opacity:0.995" fill="#1e1e1e" d="M 522.5,141.5 C 601.833,141.5 681.167,141.5 760.5,141.5C 760.167,213.002 760.501,284.335 761.5,355.5C 833.167,355.5 904.833,355.5 976.5,355.5C 976.5,389.167 976.5,422.833 976.5,456.5C 975.391,474.67 974.391,493.003 973.5,511.5C 939.281,530.102 905.615,549.435 872.5,569.5C 870.585,569.216 868.919,569.549 867.5,570.5C 831.76,570.826 796.094,570.493 760.5,569.5C 760.5,498.5 760.5,427.5 760.5,356.5C 689.495,356.749 618.495,356.415 547.5,355.5C 547.719,318.88 547.219,282.546 546,246.5C 542.023,233.692 534.19,224.025 522.5,217.5C 522.895,192.308 522.895,166.974 522.5,141.5 Z"/></g>
<g><path style="opacity:0.749" fill="#202020" d="M 760.5,141.5 C 832.5,141.5 904.5,141.5 976.5,141.5C 976.5,141.833 976.5,142.167 976.5,142.5C 904.833,142.5 833.167,142.5 761.5,142.5C 761.5,213.5 761.5,284.5 761.5,355.5C 760.501,284.335 760.167,213.002 760.5,141.5 Z"/></g>
<g><path style="opacity:0.998" fill="#292929" d="M 976.5,142.5 C 976.5,213.5 976.5,284.5 976.5,355.5C 904.833,355.5 833.167,355.5 761.5,355.5C 761.5,284.5 761.5,213.5 761.5,142.5C 833.167,142.5 904.833,142.5 976.5,142.5 Z"/></g>
<g><path style="opacity:0.995" fill="#0c0c0c" d="M 522.5,217.5 C 522.666,225.507 522.5,233.507 522,241.5C 521.722,242.416 521.222,243.082 520.5,243.5C 514.383,226.555 502.383,216.722 484.5,214C 497.595,211.225 510.262,212.392 522.5,217.5 Z"/></g>
<g><path style="opacity:0.987" fill="#101010" d="M 522.5,217.5 C 534.19,224.025 542.023,233.692 546,246.5C 547.219,282.546 547.719,318.88 547.5,355.5C 547.5,426.833 547.5,498.167 547.5,569.5C 618.5,569.5 689.5,569.5 760.5,569.5C 760.333,590.169 760.5,610.836 761,631.5C 796.668,611.303 832.168,590.97 867.5,570.5C 868.919,569.549 870.585,569.216 872.5,569.5C 887.509,569.5 902.509,569.834 917.5,570.5C 832.835,618.163 748.169,665.83 663.5,713.5C 654.033,719.656 643.7,722.989 632.5,723.5C 604.204,708.352 576.204,692.686 548.5,676.5C 547.507,681.12 547.173,685.786 547.5,690.5C 546.669,701.993 546.169,713.659 546,725.5C 540.806,744.352 528.64,755.852 509.5,760C 418.501,760.5 327.501,760.667 236.5,760.5C 236.5,752.833 236.5,745.167 236.5,737.5C 222.5,737.5 208.5,737.5 194.5,737.5C 201.704,736.802 209.037,736.136 216.5,735.5C 305.126,736.664 393.793,736.831 482.5,736C 503.524,733.643 516.358,722.143 521,701.5C 521.8,689.551 522.634,677.384 523.5,665C 522.724,616.05 522.057,567.217 521.5,518.5C 522.429,442.498 523.095,366.664 523.5,291C 522.676,276.908 522.176,262.741 522,248.5C 521.392,246.846 520.892,245.179 520.5,243.5C 521.222,243.082 521.722,242.416 522,241.5C 522.5,233.507 522.666,225.507 522.5,217.5 Z"/></g>
<g><path style="opacity:1" fill="#393939" d="M 247.5,320.5 C 341.706,318.875 393.873,364.875 404,458.5C 405.788,503.795 393.122,544.462 366,580.5C 341.116,607.258 310.283,621.758 273.5,624C 221.631,629.129 179.464,611.629 147,571.5C 131.775,549.17 122.441,524.504 119,497.5C 117.824,474.671 119.157,452.004 123,429.5C 140.43,365.565 181.93,329.231 247.5,320.5 Z"/></g>
<g><path style="opacity:0.999" fill="#141514" d="M 547.5,355.5 C 618.495,356.415 689.495,356.749 760.5,356.5C 760.5,427.5 760.5,498.5 760.5,569.5C 689.5,569.5 618.5,569.5 547.5,569.5C 547.5,498.167 547.5,426.833 547.5,355.5 Z"/></g>
<g><path style="opacity:0.997" fill="#0b0b0b" d="M 523.5,356.5 C 531.167,356.5 538.833,356.5 546.5,356.5C 546.562,462.516 546.562,568.516 546.5,674.5C 538.875,670.701 531.375,666.701 524,662.5C 523.5,560.501 523.333,458.501 523.5,356.5 Z"/></g>
<g><path style="opacity:1" fill="#161616" d="M 180.5,488.5 C 180.665,480.138 180.332,471.805 179.5,463.5C 179.72,424.533 196.72,395.7 230.5,377C 259.524,366.671 286.524,370.337 311.5,388C 330.13,405.767 340.297,427.6 342,453.5C 344.333,479.165 341.333,504.165 333,528.5C 314.692,564.074 285.525,579.241 245.5,574C 212.192,565.357 191.692,544.19 184,510.5C 182.506,503.21 181.34,495.877 180.5,488.5 Z"/></g>
<g><path style="opacity:0.983" fill="#070707" d="M 977.5,457.5 C 989.806,464.655 1002.14,471.822 1014.5,479C 1017.75,482.733 1020.75,486.566 1023.5,490.5C 1023.5,494.167 1023.5,497.833 1023.5,501.5C 1021.59,505.815 1019.26,509.981 1016.5,514C 1003.63,522.272 990.292,529.772 976.5,536.5C 976.169,509.995 976.502,483.661 977.5,457.5 Z"/></g>
<g><path style="opacity:1" fill="#232323" d="M 179.5,463.5 C 180.332,471.805 180.665,480.138 180.5,488.5C 178.692,480.202 178.359,471.868 179.5,463.5 Z"/></g>
<g><path style="opacity:0.988" fill="#131313" d="M 976.5,456.5 C 977.167,456.5 977.5,456.833 977.5,457.5C 976.502,483.661 976.169,509.995 976.5,536.5C 957.331,548.588 937.665,559.921 917.5,570.5C 902.509,569.834 887.509,569.5 872.5,569.5C 905.615,549.435 939.281,530.102 973.5,511.5C 974.391,493.003 975.391,474.67 976.5,456.5 Z"/></g>
<g><path style="opacity:0.996" fill="#191919" d="M 1023.5,501.5 C 1023.5,638.833 1023.5,776.167 1023.5,913.5C 1021.87,916.768 1020.2,920.101 1018.5,923.5C 1017.4,921.897 1016.07,920.397 1014.5,919C 897.108,850.978 780.108,782.478 663.5,713.5C 748.169,665.83 832.835,618.163 917.5,570.5C 937.665,559.921 957.331,548.588 976.5,536.5C 990.292,529.772 1003.63,522.272 1016.5,514C 1019.26,509.981 1021.59,505.815 1023.5,501.5 Z"/></g>
<g><path style="opacity:0.993" fill="#141414" d="M 760.5,569.5 C 796.094,570.493 831.76,570.826 867.5,570.5C 832.168,590.97 796.668,611.303 761,631.5C 760.5,610.836 760.333,590.169 760.5,569.5 Z"/></g>
<g><path style="opacity:0.998" fill="#1e1e1e" d="M 632.5,723.5 C 740.104,786.974 847.77,850.474 955.5,914C 971.568,923.367 987.902,932.2 1004.5,940.5C 999.204,945.98 992.871,949.647 985.5,951.5C 748.5,951.5 511.5,951.5 274.5,951.5C 256.286,945.787 244.12,933.787 238,915.5C 236.833,879.509 236.333,843.509 236.5,807.5C 327.834,807.667 419.167,807.5 510.5,807C 527.6,803.237 539.1,793.07 545,776.5C 546.036,768.981 546.869,761.481 547.5,754C 547.433,732.937 547.433,711.77 547.5,690.5C 547.173,685.786 547.507,681.12 548.5,676.5C 576.204,692.686 604.204,708.352 632.5,723.5 Z"/></g>
<g><path style="opacity:0.989" fill="#161616" d="M 547.5,690.5 C 547.433,711.77 547.433,732.937 547.5,754C 546.869,761.481 546.036,768.981 545,776.5C 539.1,793.07 527.6,803.237 510.5,807C 419.167,807.5 327.834,807.667 236.5,807.5C 236.5,791.833 236.5,776.167 236.5,760.5C 327.501,760.667 418.501,760.5 509.5,760C 528.64,755.852 540.806,744.352 546,725.5C 546.169,713.659 546.669,701.993 547.5,690.5 Z"/></g>
<g><path style="opacity:0.989" fill="#161616" d="M 663.5,713.5 C 780.108,782.478 897.108,850.978 1014.5,919C 1016.07,920.397 1017.4,921.897 1018.5,923.5C 1016.03,930.968 1011.37,936.635 1004.5,940.5C 987.902,932.2 971.568,923.367 955.5,914C 847.77,850.474 740.104,786.974 632.5,723.5C 643.7,722.989 654.033,719.656 663.5,713.5 Z"/></g>
</svg>
